<?xml version="1.0" standalone="no"?>
<!DOCTYPE svg PUBLIC "-//W3C//DTD SVG 20010904//EN"
 "http://www.w3.org/TR/2001/REC-SVG-20010904/DTD/svg10.dtd">
<svg version="1.0" xmlns="http://www.w3.org/2000/svg"
 width="421.000000pt" height="213.000000pt" viewBox="0 0 421.000000 213.000000"
 preserveAspectRatio="xMidYMid meet">

<g transform="translate(0.000000,213.000000) scale(0.100000,-0.100000)"
fill="#000000" stroke="none">
<path d="M149 2011 l-29 -29 0 -889 c0 -818 1 -891 17 -913 9 -14 22 -28 27
-32 6 -4 879 -8 1939 -8 l1928 0 24 26 25 27 0 894 0 895 -29 29 -29 29 -1922
0 -1922 0 -29 -29z m2180 -162 c62 -13 135 -59 161 -101 38 -62 19 -159 -36
-189 -13 -7 -38 -12 -55 -11 -76 2 -113 108 -48 136 l30 13 -28 19 c-20 14
-45 19 -93 19 -79 0 -161 -36 -211 -92 -43 -50 -86 -144 -106 -234 -19 -84
-24 -355 -9 -502 l8 -88 -127 3 -127 3 -17 55 c-26 82 -103 220 -123 220 -13
0 -8 -142 7 -205 8 -33 14 -63 15 -67 0 -5 -49 -8 -110 -8 -83 0 -110 3 -110
13 0 7 7 67 16 132 16 118 15 399 -2 483 l-6 32 123 0 124 0 12 -52 c7 -29 29
-86 50 -127 42 -84 39 -86 73 58 34 146 99 280 174 359 99 105 277 161 415
131z m-1470 -390 c11 -29 21 -57 21 -64 0 -6 -23 -22 -51 -35 -52 -25 -73 -42
-40 -33 61 16 267 -155 329 -273 l32 -61 -51 -22 c-29 -11 -58 -21 -65 -21 -8
0 -27 26 -43 58 -44 86 -117 178 -187 235 -54 42 -62 53 -51 66 6 8 -9 1 -34
-16 -54 -37 -152 -141 -175 -185 l-16 -31 -19 24 c-10 13 -19 31 -19 39 0 49
104 207 173 264 43 35 155 106 168 106 3 0 16 -23 28 -51z m1579 9 c55 -28
112 -99 145 -178 18 -44 22 -75 22 -155 0 -89 -3 -106 -28 -157 -118 -241
-420 -213 -501 47 -27 83 -18 203 19 276 47 95 126 174 191 192 36 11 105 -1
152 -25z m812 -84 l0 -95 -33 25 c-51 39 -88 43 -123 13 l-29 -25 1 -129 c1
-70 9 -172 18 -225 9 -54 16 -105 16 -113 0 -13 -20 -15 -120 -15 -66 0 -120
4 -120 9 0 5 9 64 21 131 27 161 24 326 -6 360 -43 47 -93 45 -147 -8 l-28
-26 0 97 0 97 275 0 275 0 0 -96z m627 74 c-3 -13 -8 -50 -12 -83 -11 -99 -11
-99 -50 -61 -44 44 -84 53 -132 29 -38 -18 -67 -58 -82 -111 l-9 -30 45 20
c52 23 108 18 147 -13 30 -24 36 -55 19 -92 -25 -52 -96 -55 -133 -6 -15 19
-17 19 -32 2 -33 -37 -27 -88 15 -113 50 -31 109 -27 151 11 l35 30 5 -23 c3
-13 7 -45 10 -73 3 -27 8 -67 12 -87 l7 -38 -243 0 -242 0 6 33 c29 154 34
404 11 532 -8 44 -15 83 -15 88 0 4 111 7 246 7 l246 0 -5 -22z m-3415 -291
c58 -113 167 -230 267 -287 14 -8 14 -11 -4 -25 -15 -13 -12 -12 13 2 51 28
148 113 184 162 l32 44 20 -42 20 -42 -24 -46 c-38 -73 -164 -195 -239 -232
-34 -18 -64 -31 -65 -29 -7 10 -46 108 -46 116 0 5 18 17 40 27 l40 18 -49 17
c-121 41 -255 157 -318 276 l-33 62 58 25 c31 14 59 26 62 26 3 1 22 -32 42
-72z m344 -45 c21 -27 16 -70 -11 -97 -30 -30 -64 -32 -99 -4 -45 35 -28 122
27 131 29 5 67 -9 83 -30z m783 -413 c17 -6 36 -19 41 -29 37 -69 -33 -155
-84 -104 -22 22 -20 43 7 54 l22 9 -23 0 c-13 1 -37 -12 -54 -29 -28 -28 -30
-36 -25 -78 4 -36 12 -53 37 -75 36 -32 64 -31 108 3 13 11 28 17 33 14 19
-12 8 -64 -20 -96 -24 -27 -36 -32 -87 -35 -117 -8 -195 65 -195 181 0 134
120 227 240 185z m310 5 c98 -20 156 -186 102 -293 -58 -112 -200 -107 -258 9
-39 76 -26 165 35 232 48 53 69 62 121 52z m1579 -29 c12 -14 22 -39 22 -56 0
-31 -30 -69 -56 -69 -47 0 -72 48 -36 69 16 10 16 10 -1 11 -10 0 -32 -13 -48
-29 -43 -43 -41 -101 5 -147 41 -41 52 -42 100 -9 20 14 39 25 41 25 2 0 6
-13 10 -29 19 -89 -109 -142 -215 -88 -177 89 -93 373 105 353 37 -4 56 -12
73 -31z m-1236 -33 c10 -31 27 -68 37 -82 l20 -25 -5 43 c-2 23 -6 60 -8 82
l-4 40 64 0 64 0 -7 -42 c-10 -56 -10 -186 0 -265 l8 -63 -66 0 -66 0 -15 38
c-22 57 -50 106 -64 110 -10 4 -11 -8 -6 -49 4 -30 10 -64 13 -76 5 -22 2 -23
-56 -23 -45 0 -61 4 -61 14 0 8 5 58 10 112 6 58 7 127 2 167 -5 37 -6 69 -4
72 3 3 33 5 66 5 l61 0 17 -58z m384 31 c9 -42 22 -75 44 -108 l20 -30 -6 83
-7 82 61 0 62 0 -7 -62 c-10 -79 -9 -101 0 -216 l8 -93 -66 3 -66 3 -24 59
c-13 33 -32 67 -41 75 -15 15 -16 10 -11 -61 l5 -78 -59 0 -60 0 8 63 c4 34 7
117 7 185 l-2 122 64 0 c61 0 64 -1 70 -27z m514 10 c0 -10 -3 -35 -6 -55 l-7
-37 -25 19 c-33 27 -58 25 -87 -5 -35 -34 -33 -56 5 -49 43 9 77 -2 83 -28 12
-45 -50 -73 -75 -34 -11 17 -30 -8 -26 -35 5 -35 51 -48 89 -27 28 17 29 16
34 -5 2 -12 6 -38 7 -57 l3 -35 -130 0 -130 0 5 45 c8 69 6 230 -3 278 l-7 42
135 0 c122 0 135 -2 135 -17z m740 -34 c0 -45 -2 -50 -17 -44 -86 37 -101 8
-81 -153 7 -62 12 -115 9 -118 -6 -5 -116 -5 -122 1 -3 2 2 50 9 105 11 79 12
110 3 140 -14 46 -41 59 -76 36 l-25 -16 0 50 0 50 150 0 150 0 0 -51z"/>
<path d="M2301 1305 c-37 -32 -55 -83 -54 -161 1 -150 117 -210 168 -87 32 75
9 213 -42 253 -33 25 -35 25 -72 -5z"/>
<path d="M450 985 c13 -14 25 -25 27 -25 2 0 3 11 3 25 0 20 -5 25 -27 25
l-26 0 23 -25z"/>
<path d="M1847 603 c-42 -48 -23 -163 27 -163 32 0 49 31 49 87 0 44 -24 93
-47 93 -7 0 -20 -8 -29 -17z"/>
</g>
</svg>
